<?xml version="1.0" encoding="UTF-8"?>
<svg xmlns="http://www.w3.org/2000/svg" version="1.1" viewBox="0 0 288 180">
  <!-- Generator: Adobe Illustrator 29.3.1, SVG Export Plug-In . SVG Version: 2.1.0 Build 151)  -->
  <defs>
    <style>
      .st0 {
        fill: #70d44b;
      }

      .st1 {
        fill: #fff;
      }

      .st2 {
        fill: #0a4440;
      }

      .st3 {
        display: none;
      }
    </style>
  </defs>
  <g id="Layer_2" class="st3">
    <rect class="st1" x="21.49" y="29.21" width="240.44" height="160.26"/>
  </g>
  <g id="Layer_1">
    <path class="st2" d="M224.71,136.17"/>
    <path class="st2" d="M144.72,102.16c3.36,3.15,10.16,6.4,17.71,9.18,16.2,5.97,28.41,1.62,44.22-1.46,7.17-1.4,14.7-1.76,21.97-1.04-7.07-3.06-13.69-4.16-21.33-3.07-15.01,2.14-28.28,5.28-43.37,2.05-11.5-2.47-19.2-5.65-19.2-5.65Z"/>
    <rect class="st2" x="77.53" y="148.3" width="128" height="23.48"/>
    <g>
      <path class="st2" d="M38.84,121.43h4.6v16.63h8.52v4.25h-13.12v-20.87Z"/>
      <path class="st2" d="M58.36,123.56h4.13v18.75h-4.13v-18.75Z"/>
      <path class="st2" d="M86.93,140.98c-1.22.64-2.49,1.09-3.81,1.38-1.32.28-2.67.42-4.05.42-1.47,0-2.82-.23-4.05-.69-1.24-.46-2.3-1.12-3.2-1.97s-1.6-1.89-2.11-3.11c-.5-1.22-.75-2.58-.75-4.08s.25-2.86.75-4.08c.5-1.22,1.21-2.25,2.11-3.11.9-.86,1.97-1.51,3.2-1.97,1.24-.46,2.59-.69,4.05-.69s2.88.18,4.14.54c1.26.36,2.37.98,3.32,1.87l-2.91,3.18c-.57-.58-1.2-1.02-1.91-1.32s-1.59-.45-2.65-.45c-.88,0-1.68.15-2.4.45s-1.33.72-1.84,1.26c-.51.54-.9,1.18-1.18,1.92-.27.74-.41,1.54-.41,2.41s.14,1.69.41,2.42c.27.73.67,1.37,1.18,1.91.51.54,1.13.96,1.84,1.26.71.3,1.51.45,2.4.45s1.68-.1,2.33-.3,1.17-.41,1.56-.62v-3.04h-3.36v-3.81h7.33v9.8Z"/>
      <path class="st2" d="M94.26,123.56h4.13v6.99h8.02v-6.99h4.13v18.75h-4.13v-8.1h-8.02v8.1h-4.13v-18.75Z"/>
      <path class="st2" d="M121.7,127.21h-5.35v-3.65h14.83v3.65h-5.35v15.09h-4.13v-15.09Z"/>
      <path class="st2" d="M137.19,121.43h4.6v7.78h8.93v-7.78h4.6v20.87h-4.6v-9.02h-8.93v9.02h-4.6v-20.87Z"/>
      <path class="st2" d="M162.47,132.93c0-1.5.25-2.86.75-4.08.5-1.22,1.2-2.25,2.1-3.11.9-.86,1.97-1.51,3.2-1.97s2.59-.69,4.05-.69,2.82.23,4.05.69c1.24.46,2.3,1.12,3.2,1.97.9.86,1.6,1.89,2.1,3.11.5,1.22.75,2.58.75,4.08s-.25,2.86-.75,4.08c-.5,1.22-1.2,2.25-2.1,3.11s-1.97,1.51-3.2,1.97c-1.24.46-2.59.69-4.05.69s-2.82-.23-4.05-.69-2.3-1.12-3.2-1.97-1.6-1.89-2.1-3.11-.75-2.58-.75-4.08ZM166.76,132.93c0,.88.14,1.69.41,2.42.27.73.67,1.37,1.18,1.91.51.54,1.12.96,1.84,1.26.71.3,1.51.45,2.4.45s1.68-.15,2.4-.45c.71-.3,1.33-.72,1.84-1.26.51-.54.9-1.17,1.18-1.91.27-.73.41-1.54.41-2.42s-.14-1.67-.41-2.41c-.27-.74-.67-1.38-1.18-1.92-.51-.54-1.13-.96-1.84-1.26s-1.51-.45-2.4-.45-1.68.15-2.4.45-1.33.72-1.84,1.26c-.51.54-.91,1.18-1.18,1.92-.27.74-.41,1.54-.41,2.41Z"/>
      <path class="st2" d="M205.02,135.08c0,1.11-.17,2.14-.5,3.07-.34.94-.83,1.75-1.5,2.44s-1.49,1.23-2.48,1.62c-.99.39-2.13.58-3.42.58s-2.45-.19-3.44-.58c-.99-.39-1.81-.93-2.48-1.62-.66-.69-1.16-1.5-1.5-2.44-.34-.94-.5-1.96-.5-3.07v-11.52h4.13v11.36c0,.58.09,1.12.28,1.62s.45.92.78,1.28c.33.36.74.64,1.21.85.47.2.97.3,1.52.3s1.05-.1,1.51-.3.86-.49,1.19-.85c.33-.36.6-.79.78-1.28.18-.49.28-1.03.28-1.62v-11.36h4.13v11.52Z"/>
      <path class="st2" d="M221.81,128.14c-.34-.42-.79-.74-1.36-.94-.57-.2-1.12-.3-1.63-.3-.3,0-.61.04-.93.11-.32.07-.62.18-.9.33-.28.15-.51.35-.69.6-.18.25-.26.55-.26.9,0,.57.21,1,.63,1.3s.96.56,1.6.77c.64.21,1.34.42,2.08.64.74.21,1.43.51,2.08.9s1.18.91,1.6,1.56c.42.65.64,1.53.64,2.62s-.19,1.95-.58,2.73c-.39.78-.91,1.42-1.58,1.93-.66.51-1.43.89-2.3,1.14-.87.25-1.8.37-2.77.37-1.22,0-2.35-.19-3.39-.56-1.04-.37-2.01-.97-2.91-1.8l2.94-3.23c.42.56.96,1,1.6,1.31.64.31,1.31.46,2,.46.33,0,.67-.04,1.02-.12.34-.08.65-.2.93-.36.27-.16.49-.36.66-.61.17-.25.25-.54.25-.87,0-.56-.22-1.01-.65-1.34-.43-.33-.98-.6-1.63-.83-.65-.23-1.36-.46-2.12-.69-.76-.23-1.47-.54-2.12-.93-.65-.39-1.2-.9-1.63-1.54-.43-.64-.65-1.47-.65-2.52s.2-1.89.6-2.65c.4-.76.93-1.39,1.59-1.91s1.42-.9,2.29-1.15c.87-.26,1.76-.38,2.67-.38,1.06,0,2.08.15,3.07.45.99.3,1.88.8,2.67,1.51l-2.83,3.1Z"/>
      <path class="st2" d="M231.61,123.56h12.74v3.81h-8.61v3.5h8.13v3.81h-8.13v3.81h9.08v3.81h-13.21v-18.75Z"/>
      <path class="st0" d="M93.33,156.35c-.26-.33-.61-.57-1.05-.73-.44-.16-.86-.24-1.26-.24-.23,0-.47.03-.72.08-.25.05-.48.14-.7.26s-.4.27-.53.46c-.14.19-.21.42-.21.7,0,.44.16.77.49,1,.33.23.74.43,1.24.59.5.16,1.03.33,1.61.49.57.16,1.11.4,1.61.7.5.3.91.7,1.24,1.21s.49,1.18.49,2.03-.15,1.51-.45,2.11c-.3.6-.71,1.1-1.22,1.5-.51.4-1.11.69-1.78.88-.68.19-1.39.29-2.14.29-.94,0-1.82-.14-2.62-.43-.81-.29-1.56-.75-2.25-1.39l2.27-2.5c.33.44.74.78,1.24,1.01.5.24,1.01.36,1.55.36.26,0,.52-.03.79-.09.27-.06.5-.15.72-.28.21-.12.38-.28.51-.47s.19-.42.19-.68c0-.44-.17-.78-.5-1.03s-.75-.47-1.26-.65c-.51-.18-1.05-.35-1.64-.53s-1.13-.42-1.64-.72c-.51-.3-.93-.7-1.26-1.19-.33-.49-.5-1.14-.5-1.95s.15-1.46.46-2.05.72-1.08,1.23-1.47c.51-.4,1.1-.69,1.77-.89s1.36-.3,2.07-.3c.82,0,1.61.12,2.38.35.76.23,1.45.62,2.07,1.17l-2.19,2.4Z"/>
      <path class="st0" d="M106.07,152.81h3.19v14.5h-3.19v-14.5Z"/>
      <path class="st0" d="M120.49,152.81h9.85v2.95h-6.66v2.7h6.29v2.95h-6.29v2.95h7.02v2.95h-10.22v-14.5Z"/>
      <path class="st0" d="M141.46,152.81h5.61c.74,0,1.44.07,2.1.21.66.14,1.24.38,1.74.72.5.33.89.79,1.19,1.35.29.57.44,1.27.44,2.12,0,1.02-.27,1.89-.8,2.61-.53.72-1.31,1.17-2.33,1.36l3.69,6.12h-3.83l-3.03-5.8h-1.58v5.8h-3.2v-14.5ZM144.65,158.81h1.88c.29,0,.59-.01.91-.03.32-.02.61-.08.87-.18.26-.1.47-.26.65-.48s.26-.53.26-.92c0-.37-.08-.66-.23-.88-.15-.22-.34-.39-.57-.5-.23-.12-.5-.19-.8-.24-.3-.04-.59-.06-.88-.06h-2.09v3.3Z"/>
      <path class="st0" d="M162.92,152.81h5.61c.74,0,1.44.07,2.1.21.66.14,1.24.38,1.74.72.5.33.89.79,1.19,1.35.29.57.44,1.27.44,2.12,0,1.02-.27,1.89-.8,2.61-.53.72-1.31,1.17-2.33,1.36l3.69,6.12h-3.83l-3.03-5.8h-1.58v5.8h-3.2v-14.5ZM166.12,158.81h1.88c.29,0,.59-.01.91-.03.32-.02.61-.08.87-.18.26-.1.47-.26.65-.48s.26-.53.26-.92c0-.37-.08-.66-.23-.88-.15-.22-.34-.39-.57-.5-.23-.12-.5-.19-.8-.24-.3-.04-.59-.06-.88-.06h-2.09v3.3Z"/>
      <path class="st0" d="M189.16,152.81h2.64l6.31,14.5h-3.6l-1.25-3.07h-5.63l-1.21,3.07h-3.52l6.27-14.5ZM190.38,157.02l-1.76,4.51h3.54l-1.78-4.51Z"/>
    </g>
    <path class="st2" d="M77.26,108.92c6.4.37,13.48,2,19.55,4.03-11.81-8.62-27.65-8.81-40.49-2.55,7.22-.89,13.64-1.9,20.94-1.48Z"/>
    <g>
      <g>
        <path class="st2" d="M159.47,45.88c0-.19.04-.37.1-.54l-3.18.28.33-2.56c-.2.06-.42.09-.64.09s-.44-.03-.64-.09l.33,2.56-3.18-.28c.07.17.1.35.1.54s-.04.37-.1.54l3.2-.29-.36,4.89c.2-.06.42-.09.64-.09s.44.03.64.09l-.36-4.89,3.2.29c-.07-.17-.1-.35-.1-.54Z"/>
        <g>
          <path class="st0" d="M160.85,47.41c-.02-.07,0-.18.03-.28.08-.22.18-.32.27-.27.32.11.92-.05,1.34-.03.45-.01.71.16,1.1.2.13.02.31.07.39.13.08.06-.05.19-.24.24-.55.11-.81-.06-1.25-.05-.41-.02-1.02.14-1.49.18-.08,0-.13-.03-.15-.1Z"/>
          <path class="st0" d="M161.18,45.41s-.04-.06-.06-.1c-.07-.16-.09-.39,0-.47.48-.36,1.36-.32,1.99-.57.68-.2,1.12-.68,1.91-.82.16-.03.36.07.4.17.03.1-.12.16-.29.18-.82.12-1.2.68-1.82.95-.58.32-1.4.36-1.92.69-.08.05-.16.04-.22-.03Z"/>
          <path class="st0" d="M159.35,48.91s.01-.07.03-.11c.07-.16.22-.34.34-.32.59.09,1.18.74,1.81,1.02.62.35,1.27.32,1.93.78.13.1.21.31.16.4-.05.09-.2.02-.33-.08-.67-.5-1.33-.37-1.96-.63-.63-.18-1.24-.75-1.84-.88-.09-.02-.14-.08-.13-.18Z"/>
          <path class="st0" d="M156.67,41.79c-.07.02-.18.01-.28-.03-.22-.08-.32-.17-.27-.27.11-.32-.06-.92-.05-1.34-.02-.45.15-.71.19-1.1.02-.13.06-.31.12-.39.06-.08.19.05.24.24.12.54-.05.81-.04,1.25-.02.41.16,1.01.2,1.48,0,.07-.03.13-.1.15Z"/>
          <path class="st0" d="M153.41,43.38c-.03.07-.11.13-.21.19-.21.11-.35.11-.38.01-.16-.3-.71-.59-1-.89-.34-.3-.41-.6-.67-.9-.08-.1-.18-.26-.2-.36-.02-.1.17-.1.34,0,.47.29.55.6.88.89.29.3.84.59,1.21.88.06.05.07.11.04.18Z"/>
          <path class="st0" d="M154.71,41.96s-.06.04-.09.06c-.16.07-.39.09-.47,0-.37-.47-.35-1.35-.61-1.98-.21-.68-.7-1.1-.86-1.89-.03-.16.06-.36.16-.4.1-.04.16.12.18.29.14.82.71,1.18.99,1.8.33.57.39,1.39.73,1.9.06.08.05.16-.03.22Z"/>
          <path class="st0" d="M151.58,44.49s-.01.07-.03.11c-.07.16-.22.34-.34.32-.59-.09-1.19-.74-1.81-1.01-.62-.35-1.27-.31-1.93-.77-.14-.1-.21-.31-.16-.4.05-.09.2-.02.33.08.67.49,1.33.37,1.96.62.64.18,1.24.74,1.84.87.09.02.14.08.13.18Z"/>
          <path class="st0" d="M158.05,43.09s-.07-.01-.11-.03c-.16-.06-.34-.21-.33-.33.07-.59.71-1.2.97-1.83.33-.63.29-1.28.73-1.94.09-.14.3-.21.4-.17.09.04.03.2-.08.34-.48.68-.34,1.33-.58,1.97-.17.64-.72,1.26-.83,1.86-.01.09-.08.14-.17.14Z"/>
          <path class="st0" d="M160.23,43.78c-.07-.03-.13-.12-.18-.22-.1-.21-.1-.35,0-.38.31-.15.61-.69.92-.98.31-.33.61-.4.92-.64.1-.08.26-.17.36-.19.1-.01.1.17,0,.34-.31.46-.61.53-.92.85-.31.28-.61.82-.92,1.19-.05.06-.12.07-.18.03Z"/>
          <path class="st0" d="M150.9,46.5c.02.07,0,.18-.03.28-.08.22-.18.31-.28.27-.32-.12-.92.04-1.34.02-.45,0-.71-.17-1.1-.21-.13-.02-.31-.07-.39-.13-.08-.06.06-.19.24-.23.55-.1.81.07,1.25.07.41.03,1.02-.13,1.49-.16.08,0,.13.03.15.11Z"/>
          <path class="st0" d="M155.53,52.18c.07-.02.18,0,.28.03.22.08.32.18.27.27-.11.32.05.92.03,1.34.01.45-.16.71-.2,1.1-.02.13-.07.31-.13.39-.06.08-.19-.05-.24-.24-.11-.55.06-.8.05-1.25.02-.41-.14-1.02-.18-1.49,0-.07.03-.13.1-.15Z"/>
          <path class="st0" d="M158.81,50.64c.03-.07.12-.13.22-.18.21-.1.35-.1.38,0,.15.3.7.6.99.9.33.3.41.6.66.91.08.1.18.26.19.36.02.1-.17.1-.34,0-.47-.3-.54-.6-.87-.9-.29-.3-.83-.6-1.2-.9-.06-.05-.07-.11-.04-.18Z"/>
          <path class="st0" d="M152.12,48.06s.04.06.05.1c.07.16.08.39-.02.47-.48.35-1.37.3-2,.55-.69.19-1.13.67-1.92.8-.17.02-.36-.07-.4-.17-.03-.1.12-.15.3-.17.82-.11,1.21-.67,1.84-.93.58-.32,1.41-.34,1.93-.67.08-.05.16-.04.22.03Z"/>
          <path class="st0" d="M157.49,52.04s.06-.04.1-.06c.16-.07.39-.09.47,0,.36.47.33,1.36.58,1.99.2.68.69,1.11.84,1.9.03.16-.07.36-.17.4-.1.03-.16-.12-.18-.29-.13-.82-.69-1.19-.96-1.82-.33-.57-.37-1.4-.7-1.91-.06-.08-.05-.16.03-.22Z"/>
          <path class="st0" d="M153.63,51.3s.07.01.11.03c.16.06.34.21.33.34-.08.59-.73,1.19-1,1.82-.34.62-.3,1.27-.76,1.93-.1.14-.3.21-.4.16-.09-.05-.03-.2.08-.33.49-.67.36-1.33.61-1.96.17-.64.73-1.25.86-1.85.02-.09.08-.14.17-.13Z"/>
          <path class="st0" d="M152.53,49.71c.07.03.13.12.18.22.1.21.1.35,0,.38-.31.14-.62.69-.93.97-.31.33-.62.39-.93.63-.1.08-.26.17-.36.18-.1.01-.1-.17,0-.34.31-.46.62-.52.93-.84.31-.28.62-.82.93-1.17.05-.06.12-.07.18-.03Z"/>
        </g>
      </g>
      <path class="st2" d="M207.9,97.57c-2.41-1.71-4.03-4.1-6.29-5.9,1.17-.18,2.38-.27,3.53-.62,0,0-8.73-6.78-10.05-10.91,1.39.94,3,1.59,4.67,1.78-2.95-3.61-5.22-7.84-6.81-12.23,1.51.89,3.27,1.31,5.03,1.41-3.85-3.28-6.46-7.64-7.86-12.5,1.21.85,2.57,1.13,4.05,1.09-2.08-1.76-3.53-4.17-4.53-6.71-1-2.54-1.57-5.22-2.14-7.88-.57,2.67-1.14,5.35-2.14,7.88-1,2.54-2.45,4.95-4.53,6.71,1.48.03,2.84-.25,4.05-1.09-1.38,4.76-3.92,9.05-7.65,12.3.04.05.07.11.1.16,1.65-.13,3.29-.55,4.72-1.38-.56,1.55-1.24,3.07-1.97,4.56.32.3.61.63.95.91l4.11,3.5h-.05s-5.34-.31-5.34-.31c-.59-.03-1.16-.1-1.71-.19.38.82.79,1.61,1.21,2.38.1.18.21.36.31.54,1.04,1.83,2.2,3.55,3.48,5.13l2.82,3.45-4.42-.5c-.4-.05-.81-.12-1.21-.21.76,1.63,1.66,3.22,2.68,4.78.79,1.2,1.67,2.37,2.62,3.51-.75.04-1.51.07-2.27.09-.98-1.27-1.89-2.59-2.71-3.96-1.34-2.23-2.46-4.58-3.31-7.03-.09-.25-.18-.5-.27-.76.16.11.33.2.49.3,1.27.77,2.7,1.31,4.17,1.48-1.06-1.3-2-2.69-2.88-4.13-.39-.63-.78-1.25-1.13-1.9-.28-.51-.52-1.04-.78-1.56-.75-1.52-1.44-3.06-2.01-4.64,1.25.73,2.67,1.14,4.12,1.32.3.04.6.08.91.09-.22-.18-.42-.39-.63-.58-1.82-1.67-3.35-3.59-4.58-5.7-1.13-1.94-2.02-4.02-2.65-6.21,1.21.85,2.57,1.13,4.05,1.1-2.08-1.76-3.53-4.17-4.53-6.71-1-2.54-1.57-5.22-2.14-7.88-.57,2.67-1.14,5.35-2.14,7.88-.77,1.95-1.81,3.81-3.18,5.37-.42.47-.86.92-1.35,1.34,1.19.03,2.3-.17,3.32-.68.25-.12.49-.25.73-.41-.06.2-.13.39-.19.59-1.44,4.62-3.98,8.76-7.67,11.9,1.75-.1,3.51-.52,5.03-1.41-1.59,4.39-3.85,8.61-6.81,12.23,1.67-.19,3.28-.84,4.67-1.78-1.01,3.17-2.51,6.15-4.33,8.93-.63-.15-1.25-.3-1.87-.47,1.14-1.67,2.12-3.37,2.93-5.09-.39.09-.79.15-1.19.2l-4.42.5,2.81-3.45c1.95-2.38,3.62-5.08,5.01-8.05-.55.1-1.13.16-1.72.19l-5.39.31,4.11-3.5c2.56-2.18,4.62-4.99,6.06-8.24-.28.02-.56.03-.85.03l-5.05-.11,3.65-3.09c.21-.18.4-.39.6-.59l-41.25-13.64,30.18,37.41-35.06-39.03-36.79,47.28c1.58-.35,5.38-.68,6.96-.94.24-.52,29.82-35.47,29.82-35.47,9.31,9.62,18.62,19.23,27.93,28.85,1.23,1.23,2.42,2.5,3.63,3.75.54.56,1.1,1.54,1.1,2.43,0,1.05-.82,2.05-2.28,2.97-.32-.99-1.68-1.9-7.04,1.65,0,0-5.54,3.69-16.68,7.56-11.14,3.87-22.42-5.13-21.06-6.84,1.36-1.71,3.84-1.03,6.49-1.63,3.85-.88,6.57-3.54,5.87-6.09-.7-2.55-3.16-.39-8.61,1.29,0,0-9,2.57-14.42,3.16-13.82,1.5-28.43,3.32-39.45,12.61,5.07-1.66,9.73-4,15.16-4.89,5.39-.88,10.93-.9,16.3.14.27.05.55.11.82.17,11.02,2.37,19.55,11.56,31.34,10.88,6.2-.36,12.08-2.97,17.31-6.17,2.7-1.65,5.28-3.51,7.76-5.48.83-.66,3.24-2.19,4.83-3.56,8.02,2.86,26.21,7.37,38.38,6.57,6.49-.43,12.85-1.87,19.24-2.92,4.09-.68,8.89-.97,13.06-.49-2.16-.25-6.02-3.9-7.79-5.15Z"/>
      <g>
        <g>
          <path class="st2" d="M116.87,68.4h-1.74c-3.25,0-5.9,2.65-5.9,5.9v7.64h13.54v-7.64c0-3.25-2.65-5.9-5.9-5.9Z"/>
          <path class="st2" d="M123.02,82.19h-14.04v-7.89c0-3.39,2.76-6.15,6.15-6.15h1.74c3.39,0,6.15,2.76,6.15,6.15v7.89ZM109.48,81.69h13.04v-7.39c0-3.12-2.54-5.65-5.65-5.65h-1.74c-3.12,0-5.65,2.54-5.65,5.65v7.39Z"/>
        </g>
        <g>
          <path class="st0" d="M116.87,69.4v4.9h4.9c0-2.71-2.19-4.9-4.9-4.9Z"/>
          <rect class="st0" x="110.23" y="76.04" width="4.9" height="4.9"/>
          <rect class="st0" x="116.87" y="76.04" width="4.9" height="4.9"/>
          <path class="st0" d="M110.23,74.3h4.9v-4.9c-2.71,0-4.9,2.19-4.9,4.9Z"/>
        </g>
      </g>
    </g>
  </g>
</svg>